<mxfile host="app.diagrams.net" modified="2024-04-24T02:24:58.187Z" agent="Mozilla/5.0 (Windows NT 10.0; Win64; x64) AppleWebKit/537.36 (KHTML, like Gecko) Chrome/123.0.0.0 Safari/537.36" version="24.2.5" etag="rhpaa6G66YkGWV315YS_" type="github">
  <diagram name="第 1 页" id="9_St32G_uTwLlsu4mOw1">
    <mxGraphModel>
      <root>
        <mxCell id="0" />
        <mxCell id="1" parent="0" />
      </root>
    </mxGraphModel>
  </diagram>
</mxfile>
